# xmcd
#
# Track frame offsets:
#	150
#	17965
#	30962
#	45862
#	58507
#	72170
#	89422
#	105167
#	122695
#	136002
#	155492
#	168797
#	185375
#	201322
#
# Disc length: 2880
#
# Revision: 1
# Processed by: cddbd v1.5.1PL0 Copyright (c) Steve Scherf et al.
# Submitted via: VisiTrax 2.9.3.171 - For more info visit www.synapsa.com
# Normalized: r0:DSETVAR1
#
DISCID=a60b3e0e
DTITLE=Various Artist - Mr Music Country 5-01
DYEAR=1900
DGENRE=
TTITLE0=Leslie Satcher - Love Letters From Old Mexico
TTITLE1=Wade Sims - When i Get The Time
TTITLE2=John Michael Montgomery - That's Not Her Picture
TTITLE3=Mandy Barnett - Trademark
TTITLE4=Michael Peterson - Laughin' All The Way To The Bank
TTITLE5=Bryan White - One Small Miracle
TTITLE6=Tracy Lawrence - How a Cowgirl Says Goodbye
TTITLE7=Chad Austin - Both Sides Of Goodbye
TTITLE8=Don Walser - It Makes No Difference Now
TTITLE9=Anita Cochran - Every Time It Rains
TTITLE10=Gary P. Nunn - It's a Texas Thing
TTITLE11=Confederate Railroad - A Bible And a Bus Ticket Home
TTITLE12=Trick Pony with Johnny Cash and Waylon Jennings - Big River
TTITLE13=Randy Travis with Waylon Jennings and Jessi Colter - The Carpenter
EXTD=
EXTT0=
EXTT1=
EXTT2=
EXTT3=
EXTT4=
EXTT5=
EXTT6=
EXTT7=
EXTT8=
EXTT9=
EXTT10=
EXTT11=
EXTT12=
EXTT13=
PLAYORDER=
